<?xml version="1.0" encoding="UTF-8" standalone="no"?>
<svg
   xmlns:svg="http://www.w3.org/2000/svg"
   xmlns="http://www.w3.org/2000/svg"
   width="200"
   height="200"
   viewBox="0 0 100 200"
   id="svg4139"
   version="1.1">
  <g
     id="layer1"
     transform="matrix(0.5,0,0,0.5,-29.12765,-331.94832)">
    <g
       id="GhPprofileGroup">
      <path
         id="GhPhair"
         d="m 98.91804,698.77697 c 0.74856,-56.53551 114.48934,-36.26763 140.3549,3.74049 -36.30142,-38.5574 -113.79817,-45.65795 -140.3549,-3.74049 z"
         style="fill:#696969;fill-opacity:1;stroke:none;stroke-width:1.77199996;stroke-miterlimit:4;stroke-dasharray:none;stroke-opacity:1" />
      <path
         id="GhPnose"
         d="m 63.42961,801.80293 c -15.2746,-5.86202 11.22855,-25.58247 17.50493,-40.43872"
         style="fill:none;fill-rule:evenodd;stroke:#696969;stroke-width:1;stroke-linecap:round;stroke-linejoin:miter;stroke-miterlimit:4;stroke-dasharray:none;stroke-opacity:1" />
      <path
         id="GhPchin"
         d="m 73.87648,831.62131 c 7.93912,13.27022 -7.17789,22.54803 2.58002,31.93579 9.36258,9.00743 27.88848,13.05571 41.44602,19.91671"
         style="fill:none;fill-rule:evenodd;stroke:#696969;stroke-width:1;stroke-linecap:round;stroke-linejoin:miter;stroke-miterlimit:4;stroke-dasharray:none;stroke-opacity:1" />
      <path
         style="fill:none;fill-rule:evenodd;stroke:#696969;stroke-width:1;stroke-linecap:round;stroke-linejoin:miter;stroke-miterlimit:4;stroke-dasharray:none;stroke-opacity:1"
         d="m 76.51071,813.79523 c 2.9525,-2.89151 -4.09078,-6.33383 -2.08617,-11.07359"
         id="GhPupperLip0" />
      <path
         id="GhPfrontWrinkle1"
         d="M 104.15771,733.34364 C 96.06427,732.80386 93.9258,729.21106 87.46157,730.63608"
         style="fill:none;fill-rule:evenodd;stroke:#696969;stroke-width:1;stroke-linecap:round;stroke-linejoin:miter;stroke-miterlimit:4;stroke-dasharray:none;stroke-opacity:1" />
      <path
         style="fill:#696969;fill-opacity:1;stroke:none;stroke-width:1.77199996;stroke-miterlimit:4;stroke-dasharray:none;stroke-opacity:1"
         d="m 81.2954,752.74631 c -2.61427,-10.7958 18.89381,-3.68403 23.9684,4.21252 -9.24555,-6.24356 -18.31243,-5.14514 -23.9684,-4.21252 z"
         id="Ghpeyebrow" />
      <path
         id="GhPlowerLip"
         d="m 73.38,826.77834 c 0.5076,-5.86325 8.63866,-8.32144 14.29061,-7.713 -6.87293,5.18247 -11.31945,4.22045 -14.29061,7.713 z"
         style="fill:#696969;fill-opacity:1;stroke:none;stroke-width:1.77199996;stroke-miterlimit:4;stroke-dasharray:none;stroke-opacity:1" />
      <path
         style="fill:#696969;fill-opacity:1;stroke:none;stroke-width:1.77199996;stroke-miterlimit:4;stroke-dasharray:none;stroke-opacity:1"
         d="m 75.89301,819.37418 c -2.78627,-5.32399 7.2397,-4.85244 11.67325,-0.17211 -8.289,-0.89676 -9.80255,3.74663 -11.67325,0.17211 z"
         id="GhPupperLip" />
      <path
         id="GhPeye"
         d="m 90.01365,757.60137 c 0.98036,-4.27368 8.67424,0.57007 13.18788,2.91973 -5.44655,1.70524 -14.16825,1.35395 -13.18788,-2.91973 z"
         style="fill:#696969;fill-opacity:1;stroke:none;stroke-width:1.77199996;stroke-miterlimit:4;stroke-dasharray:none;stroke-opacity:1" />
      <path
         id="GhPwrinkle2"
         d="M 106.28725,725.21265 C 99.78937,724.52519 95.40332,722.11701 90.20931,723.3738"
         style="fill:none;fill-rule:evenodd;stroke:#696969;stroke-width:1;stroke-linecap:round;stroke-linejoin:miter;stroke-miterlimit:4;stroke-dasharray:none;stroke-opacity:1" />
      <path
         id="GhPcollar1"
         d="m 118.05414,941.65014 c -6.47221,-4.26541 70.00394,-90.62893 123.65671,-95.09332 -74.15903,22.39833 -118.54366,98.463 -123.65671,95.09332 z"
         style="fill:#696969;fill-opacity:1;stroke:none;stroke-width:1.77199996;stroke-miterlimit:4;stroke-dasharray:none;stroke-opacity:1" />
      <path
         style="fill:none;fill-rule:evenodd;stroke:#696969;stroke-width:1;stroke-linecap:round;stroke-linejoin:miter;stroke-miterlimit:4;stroke-dasharray:none;stroke-opacity:1"
         d="m 67.19301,800.92279 c 0.13708,-2.71256 8.98071,-4.67061 14.75581,-2.81023"
         id="GhPnostril" />
      <path
         style="fill:#696969;fill-opacity:1;stroke:none;stroke-width:1.77199996;stroke-miterlimit:4;stroke-dasharray:none;stroke-opacity:1"
         d="m 146.51551,933.2096 c 0.0647,4.03841 -10.95679,-1.16234 -27.84787,9.68746 12.62313,-11.45991 27.7821,-13.79217 27.84787,-9.68746 z"
         id="GhPcollar2" />
      <path
         style="fill:#696969;fill-opacity:1;stroke:none;stroke-width:1.77199996;stroke-miterlimit:4;stroke-dasharray:none;stroke-opacity:1"
         d="m 144.67052,937.6482 c 5.39169,3.71782 -51.29953,55.92815 -82.90486,104.1196 29.31806,-52.0377 79.66716,-106.35214 82.90486,-104.1196 z"
         id="GhPcollar3" />
      <animate
         attributeType="CSS"
         attributeName="opacity"
         from="0"
         to="1"
         dur="1s"
         repeatCount="1" />
    </g>
  </g>
  <!--
  <g
     style="font-style:normal;font-variant:normal;font-weight:normal;font-stretch:normal;font-size:24px;line-height:125%;font-family:'Comic Sans MS';-inkscape-font-specification:'Comic Sans MS';text-align:center;letter-spacing:0px;word-spacing:0px;writing-mode:lr-tb;text-anchor:middle;fill:#696969;fill-opacity:1;stroke:none;stroke-width:1px;stroke-linecap:butt;stroke-linejoin:miter;stroke-opacity:1"
     id="text3351"
     transform="translate(14.184397,0.35460993)">
    <path
       d="m 27.058599,185.21276 q -1.085,0.21 -2.17,0.21 -3.535,0 -5.6,-2.275 -1.435,-1.61 -1.435,-4.095 0,-5.355 4.83,-9.8 5.39,-4.795 13.125,-4.795 2.205,0 3.815,0.84 1.295,0.7 1.295,2.1 0,0.595 -0.35,0.665 -0.455,0.105 -0.49,-0.525 -0.14,-2.31 -3.57,-2.31 -1.54,0 -3.815,0.77 -2.24,0.735 -4.655,2.135 -2.415,1.4 -4.515,3.115 -2.1,1.68 -3.465,3.815 -1.33,2.135 -1.33,4.27 0,2.135 1.47,3.29 1.505,1.12 3.675,1.12 2.38,0 5.53,-0.84 1.75,-0.525 3.325,-1.47 1.575,-0.98 2.415,-1.715 1.575,-1.33 3.185,-2.94 0.84,-2.135 2.765,-2.485 0.805,-0.14 1.75,0 l 0.42,0.07 q 0.315,0.07 0.315,0.175 0,0.35 -0.455,0.315 -0.035,0 -0.07,0 -1.89,0 -3.115,3.535 -0.945,2.835 -1.785,5.075 1.855,-0.42 2.45,-0.42 0.595,0 0.84,0.14 0.245,0.14 0.07,0.315 -0.14,0.175 -0.315,0.105 -0.14,-0.07 -0.56,-0.07 -0.385,0 -1.575,0.315 -1.155,0.28 -1.365,0.84 -3.5,8.855 -8.47,12.32 -2.24,1.54 -3.99,1.54 -0.665,0 -1.26,-0.21 -1.61,-0.595 -1.61,-2.38 0,-2.135 2.205,-4.655 4.27,-4.935 11.655,-7.315 0.91,-2.765 1.68,-5.495 -6.265,5.915 -10.85,6.72 z m -2.8,10.255 q 0,0.385 0.105,0.77 0.35,1.365 1.75,1.365 2.065,0 4.34,-2.765 3.395,-4.235 5.53,-10.185 -6.125,1.995 -9.695,6.475 -2.03,2.485 -2.03,4.34 z"
       style="font-style:normal;font-variant:normal;font-weight:normal;font-stretch:normal;font-size:35px;font-family:Allura;-inkscape-font-specification:Allura"
       id="path3356"/>
    <path
       d="m 56.695943,164.63276 q 0.63,-0.245 1.085,-0.245 1.54,0 2.03,0.84 0.28,0.42 0.28,0.735 0,2.38 -3.99,5.985 -3.535,3.115 -6.51,5.355 -0.98,2.205 -2.03,5.425 1.26,-1.54 3.185,-3.57 3.885,-4.025 5.425,-4.025 0.77,0 0.805,0.77 0.07,0.805 -0.35,1.54 -0.385,0.735 -0.735,1.365 -1.645,2.73 -1.645,4.865 0,0.7 0.28,1.015 0.49,0.56 1.4,0.07 0.91,-0.49 2.52,-1.96 1.645,-1.47 2.66,-2.87 0.175,-0.175 0.315,-0.07 0.175,0.07 0.175,0.175 0,0.07 -0.07,0.175 -0.525,0.945 -1.89,2.415 -1.365,1.435 -2.205,2.065 -1.61,1.225 -3.08,1.225 -1.33,0 -1.785,-1.33 -0.105,-0.315 -0.105,-0.735 0,-0.455 0.07,-0.945 0.175,-1.47 1.855,-4.585 0.35,-0.63 0.35,-0.875 0,-0.28 -0.28,-0.28 -0.56,0 -2.17,1.4 -1.085,1.015 -3.22,3.85 -2.1,2.8 -2.38,2.975 -1.26,0.63 -1.575,0.63 -0.28,0 -0.315,-0.105 -0.035,-0.07 0.035,-0.21 0.07,-0.14 0.56,-1.54 1.645,-4.655 2.24,-6.16 -1.155,1.47 -2.87,3.325 -0.28,0.28 -0.28,-0.105 0,-0.42 0.315,-0.84 0.315,-0.42 1.295,-1.61 1.015,-1.225 1.435,-1.82 -0.315,-0.175 -0.35,-0.49 0,-0.315 0.21,-0.42 0.245,-0.14 0.77,0.07 0.35,-0.49 0.63,-1.085 4.165,-8.96 7.91,-10.395 z m 1.96,2.625 q 0.455,-0.84 0.455,-1.4 0,-0.595 -0.525,-0.595 -0.49,0 -1.33,0.63 -3.85,2.94 -6.965,9.835 2.275,-1.47 4.76,-3.92 2.485,-2.45 3.605,-4.55 z"
       style="font-style:normal;font-variant:normal;font-weight:normal;font-stretch:normal;font-size:35px;font-family:Allura;-inkscape-font-specification:Allura"
       id="path3358"/>
    <path
       d="m 65.308678,184.51276 q 0,0.455 0.455,0.455 0.455,0 1.225,-0.945 0.77,-0.98 1.05,-0.945 0.21,0.21 -0.455,0.91 -0.07,0.07 -0.245,0.385 -0.175,0.28 -0.315,0.455 -0.105,0.175 -0.315,0.455 -0.21,0.28 -0.385,0.455 -0.175,0.175 -0.385,0.35 -0.42,0.35 -0.735,0.35 -0.315,0 -0.875,-0.14 -0.525,-0.105 -0.56,-0.245 0,-0.14 0,-0.245 0,-1.82 2.975,-7.455 -0.455,0 -0.735,-0.035 -0.245,-0.035 -0.315,-0.28 -0.035,-0.245 0.14,-0.28 0.21,-0.035 0.42,0 0.21,0.035 0.735,0.035 1.785,-3.22 2.135,-3.92 0.35,-0.735 0.35,-1.05 0,-0.315 -0.035,-0.49 0.14,-0.98 1.68,-2.555 1.575,-1.61 2.835,-1.61 0.42,0 1.12,0.315 0.735,0.315 0.84,0.735 0.105,0.385 0.035,0.455 -0.035,0.035 -0.21,-0.035 -0.175,-0.07 -0.21,-0.07 -2.52,0 -7.175,8.225 3.815,-0.175 7.805,-1.505 4.025,-1.365 6.16,-3.57 1.225,-1.19 1.225,-2.52 0,-3.92 -8.015,-3.92 -4.585,0 -8.75,1.4 -2.17,0.77 -3.71,2.065 -1.505,1.295 -1.785,2.94 -0.035,0.175 -0.035,0.455 0,0.28 0.21,0.7 0.245,0.385 0.56,0.595 0.315,0.21 0.875,0.49 0.595,0.28 0.77,0.42 0.21,0.14 0.105,0.315 -0.105,0.14 -0.455,0.07 -1.085,-0.175 -2.03,-1.085 -0.945,-0.91 -0.945,-1.96 0,-0.315 0.07,-0.63 -0.07,-0.455 -0.07,-0.56 0.49,-2.625 5.145,-5.005 3.675,-1.715 8.68,-1.715 3.08,0 6.09,0.84 2.03,0.7 3.08,1.995 1.05,1.295 1.05,2.625 0,2.03 -1.61,3.605 -1.61,1.54 -3.605,2.38 -4.725,2.03 -11.13,2.17 -1.365,2.52 -2.065,4.095 -0.665,1.575 -0.665,2.03 z"
       style="font-style:normal;font-variant:normal;font-weight:normal;font-stretch:normal;font-size:35px;font-family:Allura;-inkscape-font-specification:Allura"
       id="path3360"/>
       <animate
         attributeType="CSS"
         attributeName="opacity"
         from="0"
         to="1"
         dur="1s"
         repeatCount="1" />
  </g>
  -->
  
</svg>
